<svg xmlns="http://www.w3.org/2000/svg" width="200" height="145.336" viewBox="0 0 200 145.336"><path d="M209.154,190.509,166.46,147.816H136.09a6.239,6.239,0,0,1-6.238-6.239V97.76a6.238,6.238,0,0,1,6.238-6.238h30.37l42.694-42.694a6.238,6.238,0,0,1,10.65,4.411V186.1a6.238,6.238,0,0,1-10.65,4.411ZM136.09,141.577h32.954L213.565,186.1V53.239L169.044,97.76H136.09ZM254.64,175.63a3.122,3.122,0,0,1,1.7-4.068c1.242-.513,30.422-13,30.422-52,0-39.027-29.218-52.008-30.462-52.541a3.119,3.119,0,0,1,2.44-5.741C259.081,61.429,293,76.3,293,119.566c0,43.3-33.958,57.631-34.3,57.771a3.111,3.111,0,0,1-4.059-1.707Zm-10.973-21.706a3.124,3.124,0,0,1,1.691-4.069c.721-.3,17.651-7.612,17.651-30.331,0-22.753-16.969-30.355-17.691-30.667a3.119,3.119,0,0,1,2.444-5.74c.878.372,21.486,9.412,21.486,36.407,0,27.027-20.647,35.746-21.526,36.1a3.111,3.111,0,0,1-4.055-1.7ZM117.437,143.876a24.734,24.734,0,0,1,0-49.464,6.238,6.238,0,0,1,6.312,6.238v36.989a6.238,6.238,0,0,1-6.238,6.238Zm-7.047-41.712a18.5,18.5,0,0,0,7.12,35.474h0V100.65A18.365,18.365,0,0,0,110.39,102.164Zm123.021,33.369a3.119,3.119,0,0,1,1.712-4.065c.259-.112,6.939-3.081,6.939-12.177,0-9.13-6.718-12.222-7-12.349a3.119,3.119,0,0,1,2.458-5.734c.44.186,10.785,4.722,10.785,18.083,0,13.392-10.383,17.774-10.825,17.954a3.116,3.116,0,0,1-4.065-1.712Z" transform="translate(-93 -47)"/></svg>