<svg xmlns="http://www.w3.org/2000/svg" width="181.731" height="199.999" viewBox="0 0 181.731 199.999"><path d="M449.822,3544.61c-7.053-2.465-15.012,1.928-17.775,9.828l-16.479,47.052c-.741-.405-1.489-.813-2.255-1.2l9.825-66.75a15.148,15.148,0,0,0-29.973-4.412l-9.135,62.05a15.255,15.255,0,0,0-1.6-.551c-.251-.076-.539-.135-.816-.2l-3.784-67.952a15.15,15.15,0,0,0-30.252,1.686l3.733,67.065c-.863.1-1.724.206-2.579.313L330.565,3531.8a15.148,15.148,0,1,0-28.986,8.813l27.036,103.756L305,3609.649a15.149,15.149,0,1,0-26.083,15.417s46.359,78.875,48.164,83.1h97.8c2.711-17.956,10.7-72.492,13.072-88.725l19.633-56.063C460.354,3555.486,456.875,3547.081,449.822,3544.61Z" transform="translate(-276.806 -3508.167)"/></svg>